<svg xmlns="http://www.w3.org/2000/svg" viewBox="0 0 100 100">
  <defs>
    <linearGradient id="favicon_grad" x1="0%" y1="0%" x2="100%" y2="100%">
      <stop offset="0%" stop-color="#3498db" />
      <stop offset="100%" stop-color="#0284c7" />
    </linearGradient>
  </defs>
  <circle cx="50" cy="50" r="50" fill="url(#favicon_grad)" />
  <path d="M38.5,28 L38.5,48 C38.5,53.5 43,58 48.5,58 L52.5,58 L52.5,51 L48.5,51 C46.8,51 45.5,49.7 45.5,48 L45.5,35 L38.5,28 Z M61.5,72 L61.5,52 C61.5,46.5 57,42 51.5,42 L47.5,42 L47.5,49 L51.5,49 C53.2,49 54.5,50.3 54.5,52 L54.5,65 L61.5,72 Z M38.5,28 L31.5,35 L45.5,35 L38.5,28 Z M61.5,72 L68.5,65 L54.5,65 L61.5,72 Z" fill="white" />
</svg>